<svg width="375" height="77" viewBox="0 0 375 77" fill="none" xmlns="http://www.w3.org/2000/svg">
<g clip-path="url(#clip0_1_131)">
<path d="M0 43.36V43.21C0 28.79 10.88 17 26.46 17C34.07 17 39.22 19 43.46 22.15C44.1313 22.6737 44.6734 23.3446 45.0444 24.1109C45.4155 24.8773 45.6055 25.7186 45.6 26.57C45.6026 27.2821 45.4646 27.9878 45.1939 28.6465C44.9232 29.3051 44.5252 29.9039 44.0225 30.4084C43.5199 30.9129 42.9226 31.3132 42.2649 31.5863C41.6073 31.8594 40.9021 32 40.19 32H40.09C38.8941 31.9893 37.7308 31.6085 36.76 30.91C33.8191 28.5527 30.169 27.2561 26.4 27.23C17.84 27.23 11.71 34.34 11.71 43.03V43.18C11.71 51.88 17.71 59.18 26.4 59.18C30.4362 59.2593 34.3575 57.8334 37.4 55.18C37.9207 54.7434 38.5223 54.4135 39.1704 54.2094C39.8186 54.0052 40.5006 53.9308 41.1775 53.9902C41.8545 54.0496 42.5131 54.2418 43.1158 54.5558C43.7184 54.8697 44.2534 55.2993 44.69 55.82C45.1266 56.3407 45.4565 56.9423 45.6606 57.5904C45.8648 58.2386 45.9392 58.9206 45.8798 59.5975C45.8204 60.2745 45.6282 60.9331 45.3142 61.5358C45.0003 62.1384 44.5707 62.6734 44.05 63.11C39.49 67.11 34.11 69.48 26.05 69.48C11.09 69.45 0 57.93 0 43.36Z" fill="#383838"/>
<path d="M152.19 23C152.19 21.5201 152.778 20.1008 153.824 19.0543C154.871 18.0079 156.29 17.42 157.77 17.42C159.25 17.42 160.669 18.0079 161.716 19.0543C162.762 20.1008 163.35 21.5201 163.35 23V63.44C163.35 64.9199 162.762 66.3392 161.716 67.3857C160.669 68.4321 159.25 69.02 157.77 69.02C156.29 69.02 154.871 68.4321 153.824 67.3857C152.778 66.3392 152.19 64.9199 152.19 63.44V23Z" fill="#383838"/>
<path d="M169.17 23.13C169.165 22.4025 169.303 21.681 169.576 21.0069C169.85 20.3327 170.254 19.719 170.764 19.2009C171.275 18.6827 171.883 18.2702 172.553 17.987C173.223 17.7037 173.943 17.5552 174.67 17.55H175.91C178.59 17.55 180.18 18.86 181.71 20.81L203.24 49.08V22.91C203.325 21.5086 203.941 20.1924 204.963 19.2301C205.985 18.2677 207.336 17.7318 208.74 17.7318C210.144 17.7318 211.495 18.2677 212.517 19.2301C213.539 20.1924 214.156 21.5086 214.24 22.91V63.29C214.248 64.0166 214.112 64.7376 213.841 65.4116C213.57 66.0857 213.168 66.6995 212.659 67.2179C212.15 67.7364 211.543 68.1491 210.874 68.4327C210.205 68.7162 209.487 68.8648 208.76 68.87H208.3C205.62 68.87 204.02 67.57 202.49 65.61L180.18 36.32V63.51C180.166 64.9261 179.607 66.2823 178.619 67.2972C177.631 68.3121 176.291 68.9077 174.876 68.9605C173.46 69.0132 172.079 68.519 171.019 67.5805C169.958 66.6419 169.3 65.3311 169.18 63.92C169.17 63.7835 169.17 63.6465 169.18 63.51L169.17 23.13Z" fill="#383838"/>
<path d="M218.62 61.44L236.32 21.51C236.822 20.1925 237.717 19.061 238.883 18.2687C240.049 17.4764 241.43 17.0614 242.84 17.08H243.47C244.871 17.0651 246.244 17.4824 247.399 18.2751C248.555 19.0677 249.439 20.1973 249.93 21.51L267.63 61.44C267.981 62.1404 268.178 62.9073 268.21 63.69C268.221 64.3847 268.094 65.0747 267.838 65.7206C267.582 66.3664 267.201 66.9555 266.717 67.4542C266.234 67.9529 265.656 68.3514 265.018 68.6269C264.381 68.9024 263.695 69.0496 263 69.06H262.92C260.31 69.06 258.57 67.51 257.56 65.19L254.15 57.19H231.82L228.27 65.51C227.867 66.5396 227.163 67.4237 226.249 68.0464C225.336 68.6691 224.256 69.0015 223.15 69C221.789 69.0027 220.482 68.465 219.516 67.5051C218.551 66.5452 218.005 65.2415 218 63.88V63.78C218.046 62.966 218.256 62.1698 218.62 61.44ZM250.01 47.44L243.01 30.69L236.01 47.44H250.01Z" fill="#383838"/>
<path d="M97.62 61.44L115.32 21.51C115.822 20.1925 116.717 19.061 117.883 18.2687C119.049 17.4764 120.43 17.0614 121.84 17.08H122.47C123.871 17.0651 125.244 17.4824 126.399 18.2751C127.555 19.0677 128.439 20.1973 128.93 21.51L146.63 61.44C146.981 62.1404 147.178 62.9073 147.21 63.69C147.221 64.3847 147.094 65.0747 146.838 65.7206C146.582 66.3664 146.201 66.9555 145.717 67.4542C145.234 67.9529 144.656 68.3514 144.018 68.6269C143.381 68.9024 142.695 69.0496 142 69.06H141.92C139.31 69.06 137.57 67.51 136.56 65.19L133.15 57.19H110.82L107.27 65.51C106.867 66.5396 106.163 67.4237 105.249 68.0464C104.336 68.6691 103.256 69.0015 102.15 69C100.789 69.0027 99.4816 68.465 98.5161 67.5051C97.5505 66.5452 97.0053 65.2415 97 63.88V63.78C97.0455 62.966 97.2565 62.1698 97.62 61.44ZM129.01 47.44L122.01 30.69L115.01 47.44H129.01Z" fill="#383838"/>
<path d="M334.88 23.42C334.872 21.9515 335.446 20.5397 336.477 19.4938C337.508 18.4479 338.911 17.8532 340.38 17.84H355.62C367.72 17.84 375.04 25.02 375.04 35.38V35.53C375.04 47.27 365.91 53.36 354.53 53.36H346.03V63.36C345.969 64.8003 345.354 66.1614 344.313 67.1591C343.272 68.1567 341.887 68.7136 340.445 68.7136C339.003 68.7136 337.617 68.1567 336.577 67.1591C335.536 66.1614 334.921 64.8003 334.86 63.36L334.88 23.42ZM354.88 43.42C360.46 43.42 363.73 40.09 363.73 35.73V35.6C363.73 30.6 360.25 27.92 354.67 27.92H346.05V43.43L354.88 43.42Z" fill="#383838"/>
<path d="M282.15 18.54L282.22 11.75C282.223 11.4437 282.165 11.1398 282.049 10.856C281.934 10.5722 281.763 10.3141 281.548 10.0966C281.332 9.87902 281.075 9.70634 280.792 9.5885C280.51 9.47066 280.206 9.40999 279.9 9.41C279.285 9.41 278.695 9.65443 278.26 10.0895C277.824 10.5246 277.58 11.1147 277.58 11.73V18.53C276.158 18.5837 274.812 19.1812 273.818 20.1991C272.824 21.217 272.259 22.5776 272.24 24V60.28C272.274 61.6992 272.847 63.0522 273.843 64.0644C274.838 65.0765 276.182 65.672 277.6 65.73V72.73C277.6 73.0289 277.659 73.325 277.774 73.601C277.888 73.8771 278.057 74.1278 278.268 74.3387C278.48 74.5496 278.732 74.7166 279.008 74.8301C279.285 74.9436 279.581 75.0013 279.88 75C280.181 75.0001 280.48 74.94 280.758 74.8235C281.036 74.7069 281.288 74.5361 281.499 74.3211C281.711 74.106 281.877 73.851 281.989 73.571C282.101 73.2909 282.155 72.9915 282.15 72.69V65.75C282.863 65.7474 283.568 65.6035 284.225 65.3264C284.882 65.0494 285.477 64.6448 285.977 64.136C286.476 63.6273 286.87 63.0245 287.135 62.3626C287.4 61.7007 287.531 60.9929 287.52 60.28V24C287.525 22.5658 286.964 21.1875 285.959 20.165C284.953 19.1425 283.584 18.5584 282.15 18.54Z" fill="#383838"/>
<path d="M302.82 9.13L302.89 2.34C302.893 2.03365 302.835 1.72982 302.719 1.44603C302.604 1.16224 302.433 0.904123 302.218 0.686568C302.002 0.469013 301.745 0.296333 301.462 0.178493C301.18 0.0606534 300.876 -1.13823e-05 300.57 1.60186e-09C299.955 1.60186e-09 299.365 0.244428 298.929 0.679512C298.494 1.1146 298.25 1.7047 298.25 2.32V9.12C296.834 9.17858 295.493 9.77685 294.504 10.7921C293.515 11.8074 292.952 13.1627 292.93 14.58V50.87C292.967 52.2901 293.542 53.6431 294.539 54.6551C295.536 55.667 296.881 56.2621 298.3 56.32V63.32C298.3 63.6189 298.359 63.9149 298.474 64.191C298.588 64.4671 298.756 64.7178 298.968 64.9287C299.18 65.1396 299.432 65.3066 299.708 65.4201C299.985 65.5336 300.281 65.5913 300.58 65.59C301.182 65.59 301.759 65.3508 302.185 64.9251C302.611 64.4994 302.85 63.922 302.85 63.32V56.34C303.563 56.3374 304.268 56.1935 304.925 55.9164C305.582 55.6394 306.177 55.2348 306.677 54.726C307.176 54.2173 307.57 53.6145 307.835 52.9526C308.1 52.2907 308.231 51.5828 308.22 50.87V14.61C308.225 13.8956 308.09 13.1872 307.821 12.5251C307.553 11.8631 307.156 11.2604 306.655 10.7516C306.153 10.2427 305.557 9.83759 304.899 9.55936C304.241 9.28113 303.534 9.13523 302.82 9.13Z" fill="#383838"/>
<path d="M323.15 20.68L323.21 13.89C323.215 13.5838 323.159 13.2795 323.046 12.9952C322.932 12.7109 322.762 12.4521 322.547 12.2342C322.332 12.0162 322.075 11.8434 321.793 11.7259C321.51 11.6084 321.206 11.5486 320.9 11.55C320.285 11.55 319.695 11.7944 319.26 12.2295C318.824 12.6646 318.58 13.2547 318.58 13.87V20.67C317.163 20.7262 315.821 21.3237 314.832 22.3395C313.842 23.3552 313.279 24.7119 313.26 26.13V62.42C313.292 63.8406 313.866 65.1952 314.865 66.2065C315.863 67.2178 317.21 67.8093 318.63 67.86V74.86C318.63 75.462 318.869 76.0394 319.295 76.4651C319.721 76.8908 320.298 77.13 320.9 77.13C321.503 77.1221 322.078 76.8756 322.5 76.4446C322.922 76.0135 323.155 75.433 323.15 74.83V67.89C323.862 67.8848 324.566 67.739 325.222 67.461C325.878 67.183 326.472 66.7783 326.971 66.2701C327.47 65.7619 327.864 65.1602 328.129 64.4995C328.395 63.8388 328.528 63.1321 328.52 62.42V26.16C328.531 24.7224 327.972 23.3389 326.966 22.3121C325.959 21.2852 324.588 20.6985 323.15 20.68Z" fill="#383838"/>
<path d="M50.1321 63.817V23.083C50.1321 19.944 52.6141 17.462 55.7531 17.462C58.8921 17.462 61.3741 19.944 61.3741 23.083V38.121H82.1061V23.083C82.1061 19.944 84.5881 17.462 87.7271 17.462C90.8661 17.462 93.3481 19.944 93.3481 23.083V63.817C93.3481 66.956 90.8661 69.438 87.7271 69.438C84.5881 69.438 82.1061 66.956 82.1061 63.817V48.487H61.3741V63.817C61.3741 66.956 58.8921 69.438 55.7531 69.438C52.6141 69.438 50.1321 66.956 50.1321 63.817Z" fill="#383838"/>
</g>
<defs>
<clipPath id="clip0_1_131">
<rect width="375" height="77" fill="white"/>
</clipPath>
</defs>
</svg>
